<svg viewBox="0 0 120 120" fill="none" xmlns="http://www.w3.org/2000/svg">
  <defs>
    <linearGradient id="tile" gradientUnits="userSpaceOnUse" x1="60" y1="5" x2="60" y2="115">
      <stop offset="0" stop-color="#1c2023"/>
      <stop offset="0.55" stop-color="#101215"/>
      <stop offset="1" stop-color="#0a0c0e"/>
    </linearGradient>
    <linearGradient id="rim" gradientUnits="userSpaceOnUse" x1="60" y1="5" x2="60" y2="115">
      <stop offset="0" stop-color="rgba(255,255,255,0.16)"/>
      <stop offset="0.4" stop-color="rgba(57,255,136,0.10)"/>
      <stop offset="1" stop-color="rgba(57,255,136,0.28)"/>
    </linearGradient>
    <linearGradient id="kg" gradientUnits="userSpaceOnUse" x1="0" y1="28" x2="0" y2="92">
      <stop offset="0" stop-color="#c2ffdd"/>
      <stop offset="0.45" stop-color="#4fe98d"/>
      <stop offset="1" stop-color="#16a557"/>
    </linearGradient>
    <clipPath id="clip"><rect x="5" y="5" width="110" height="110" rx="30"/></clipPath>
  </defs>
  <rect x="5" y="5" width="110" height="110" rx="30" fill="url(#tile)"/>
  <g clip-path="url(#clip)">
    <path d="M5 92 L64 34 L115 70 L115 115 L5 115 Z" fill="rgba(57,255,136,0.05)"/>
    <path d="M5 115 L48 62 L115 104 L115 115 Z" fill="rgba(255,255,255,0.035)"/>
  </g>
  <rect x="5" y="5" width="110" height="110" rx="30" stroke="url(#rim)" stroke-width="1.5"/>
  <g opacity="0.4">
    <path d="M42 35 V89" stroke="#000" stroke-width="14" stroke-linecap="round"/>
    <path d="M79 37 L50 61.5 L81 89" stroke="#000" stroke-width="14" stroke-linecap="round" stroke-linejoin="round"/>
  </g>
  <path d="M42 33 V87" stroke="url(#kg)" stroke-width="13.5" stroke-linecap="round"/>
  <path d="M79 35 L50 59.5 L81 87" stroke="url(#kg)" stroke-width="13.5" stroke-linecap="round" stroke-linejoin="round"/>
  <circle cx="92" cy="33" r="7" fill="#FF9F45"/>
  <circle cx="89.6" cy="30.6" r="2.1" fill="rgba(255,255,255,0.55)"/>
  <circle cx="101.5" cy="46" r="3.2" fill="#14B8A6" opacity="0.9"/>
  <circle cx="106" cy="58.5" r="2.4" fill="#EC4899" opacity="0.85"/>
</svg>
